<?xml version="1.0" encoding="utf-8"?>
<!-- Generator: Adobe Illustrator 23.0.0, SVG Export Plug-In . SVG Version: 6.00 Build 0)  -->
<svg version="1.1" id="Layer_1" xmlns="http://www.w3.org/2000/svg" xmlns:xlink="http://www.w3.org/1999/xlink" x="0px" y="0px"
	 viewBox="0 0 70.16 62.22" style="enable-background:new 0 0 70.16 62.22;" xml:space="preserve">
<style type="text/css">
	.st0{fill:#FBB03A;}
</style>
<path class="st0" d="M53.06,1.8H17.1c-6.25,0-11.33,5.08-11.33,11.33v11.96v24c0,6.25,5.08,11.33,11.33,11.33h35.96
	c6.25,0,11.33-5.08,11.33-11.33v-24V13.13C64.39,6.88,59.31,1.8,53.06,1.8z M56.31,8.56l1.3-0.01v1.29v8.64l-9.9,0.03l-0.03-9.93
	L56.31,8.56z M26.72,25.09c1.87-2.6,4.92-4.3,8.36-4.3s6.49,1.7,8.36,4.3c1.23,1.7,1.96,3.77,1.96,6.02
	c0,5.69-4.63,10.31-10.32,10.31S24.77,36.8,24.77,31.11C24.77,28.86,25.5,26.79,26.72,25.09z M58.68,49.09
	c0,3.1-2.52,5.62-5.62,5.62H17.1c-3.1,0-5.62-2.52-5.62-5.62v-24h8.75c-0.76,1.86-1.18,3.89-1.18,6.02
	c0,8.84,7.19,16.03,16.03,16.03s16.03-7.19,16.03-16.03c0-2.13-0.43-4.16-1.18-6.02h8.75V49.09z"/>
</svg>
