<?xml version="1.0" encoding="utf-8"?>
<!-- Generator: Adobe Illustrator 23.0.0, SVG Export Plug-In . SVG Version: 6.00 Build 0)  -->
<svg version="1.1" id="Layer_1" xmlns="http://www.w3.org/2000/svg" xmlns:xlink="http://www.w3.org/1999/xlink" x="0px" y="0px"
	 viewBox="0 0 70.16 62.22" style="enable-background:new 0 0 70.16 62.22;" xml:space="preserve">
<style type="text/css">
	.st0{fill:#FBB03A;}
</style>
<g>
	<rect x="11.75" y="24.49" class="st0" width="9.83" height="31.44"/>
	<path class="st0" d="M48.42,24.19c-5.63,0-9.16,3.08-9.81,5.24v-4.93H27.57c0.14,2.62,0,31.44,0,31.44h11.04V38.92
		c0-0.95-0.04-1.89,0.24-2.57c0.76-1.89,2.39-3.85,5.32-3.85c3.83,0,5.57,2.91,5.57,7.16v16.27h11.14V38.45
		C60.89,28.71,55.4,24.19,48.42,24.19z"/>
	<path class="st0" d="M16.48,9.65c-3.63,0-6,2.35-6,5.46c0,3.04,2.31,5.45,5.86,5.45h0.07c3.69,0,5.99-2.41,5.99-5.46
		C22.33,12,20.1,9.65,16.48,9.65z"/>
</g>
</svg>
