<?xml version="1.0" encoding="utf-8"?>
<!-- Generator: Adobe Illustrator 23.0.0, SVG Export Plug-In . SVG Version: 6.00 Build 0)  -->
<svg version="1.1" id="Layer_1" xmlns="http://www.w3.org/2000/svg" xmlns:xlink="http://www.w3.org/1999/xlink" x="0px" y="0px"
	 viewBox="0 0 70.16 62.22" style="enable-background:new 0 0 70.16 62.22;" xml:space="preserve">
<style type="text/css">
	.st0{fill:#FBB03A;}
</style>
<path class="st0" d="M67.85,9.27c-2.4,1.16-4.96,1.91-7.66,2.26c2.76-1.78,4.88-4.57,5.88-7.92c-2.58,1.64-5.44,2.8-8.48,3.49
	c-2.42-2.8-5.9-4.55-9.72-4.55c-7.36,0-13.32,6.42-13.32,14.35c0,1.11,0.12,2.22,0.34,3.25C23.83,19.58,14,13.84,7.43,5.18
	c-1.14,2.11-1.8,4.57-1.8,7.21c0,4.96,2.35,9.38,5.93,11.92c-2.19-0.09-4.24-0.7-6.04-1.78c0,0.06,0,0.13,0,0.2
	c0,6.94,4.59,12.73,10.69,14.06c-1.12,0.33-2.3,0.47-3.52,0.47c-0.86,0-1.67-0.06-2.49-0.26c1.69,5.72,6.61,9.87,12.44,9.96
	c-4.56,3.87-10.3,6.14-16.55,6.14c-1.08,0-2.14-0.06-3.18-0.2c5.89,4.09,12.88,6.47,20.42,6.47c24.5,0,37.91-21.86,37.91-40.82
	c0-0.61-0.01-1.22-0.04-1.83C63.8,14.67,66.07,12.14,67.85,9.27z"/>
</svg>
